<mxfile host="app.diagrams.net" modified="2023-09-22T17:03:45.449Z" agent="Mozilla/5.0 (Windows NT 10.0; Win64; x64) AppleWebKit/537.36 (KHTML, like Gecko) Chrome/117.0.0.0 Safari/537.36" etag="SVtyWSDHVbe72g232Z7P" version="21.8.0" type="github">
  <diagram id="7mHRUC17z__OCojrK_M-" name="Page-2">
    <mxGraphModel dx="1502" dy="568" grid="0" gridSize="10" guides="1" tooltips="1" connect="1" arrows="1" fold="1" page="1" pageScale="1" pageWidth="827" pageHeight="1169" math="0" shadow="0">
      <root>
        <mxCell id="0" />
        <mxCell id="1" parent="0" />
        <mxCell id="DO5StPmEbmpvMcrOVITN-93" value="" style="rounded=1;whiteSpace=wrap;html=1;sketch=0;strokeColor=default;align=center;verticalAlign=middle;fontFamily=Helvetica;fontSize=12;fontColor=default;fillColor=default;" vertex="1" parent="1">
          <mxGeometry x="109" y="116" width="740" height="818" as="geometry" />
        </mxCell>
        <mxCell id="DO5StPmEbmpvMcrOVITN-68" value="" style="html=1;points=[[0,0,0,0,5],[0,1,0,0,-5],[1,0,0,0,5],[1,1,0,0,-5]];perimeter=orthogonalPerimeter;outlineConnect=0;targetShapes=umlLifeline;portConstraint=eastwest;newEdgeStyle={&quot;curved&quot;:0,&quot;rounded&quot;:0};sketch=0;strokeColor=default;align=center;verticalAlign=middle;fontFamily=Helvetica;fontSize=12;fontColor=default;fillColor=default;" vertex="1" parent="1">
          <mxGeometry x="674" y="249.84000000000003" width="10" height="78" as="geometry" />
        </mxCell>
        <mxCell id="DO5StPmEbmpvMcrOVITN-53" value="" style="image;aspect=fixed;perimeter=ellipsePerimeter;html=1;align=center;shadow=0;dashed=0;spacingTop=3;image=img/lib/active_directory/databases.svg;" vertex="1" parent="1">
          <mxGeometry x="654" y="232" width="116" height="113.68" as="geometry" />
        </mxCell>
        <mxCell id="DO5StPmEbmpvMcrOVITN-79" value="" style="html=1;points=[[0,0,0,0,5],[0,1,0,0,-5],[1,0,0,0,5],[1,1,0,0,-5]];perimeter=orthogonalPerimeter;outlineConnect=0;targetShapes=umlLifeline;portConstraint=eastwest;newEdgeStyle={&quot;curved&quot;:0,&quot;rounded&quot;:0};sketch=0;strokeColor=default;align=center;verticalAlign=middle;fontFamily=Helvetica;fontSize=12;fontColor=default;fillColor=default;" vertex="1" parent="1">
          <mxGeometry x="779" y="448.5" width="10" height="80" as="geometry" />
        </mxCell>
        <mxCell id="DO5StPmEbmpvMcrOVITN-80" value="dispatch" style="html=1;verticalAlign=bottom;endArrow=block;curved=0;rounded=0;entryX=0;entryY=1;entryDx=0;entryDy=0;fontFamily=Helvetica;fontSize=12;fontColor=default;exitX=1;exitY=0.25;exitDx=0;exitDy=0;" edge="1" target="DO5StPmEbmpvMcrOVITN-49" parent="1" source="DO5StPmEbmpvMcrOVITN-31">
          <mxGeometry x="0.0109" y="-10" relative="1" as="geometry">
            <mxPoint x="711.47" y="464" as="sourcePoint" />
            <mxPoint as="offset" />
          </mxGeometry>
        </mxCell>
        <mxCell id="DO5StPmEbmpvMcrOVITN-81" value="return" style="html=1;verticalAlign=bottom;endArrow=open;dashed=1;endSize=8;curved=0;rounded=0;exitX=0.382;exitY=1.041;exitDx=0;exitDy=0;fontFamily=Helvetica;fontSize=12;fontColor=default;entryX=1;entryY=0.75;entryDx=0;entryDy=0;exitPerimeter=0;" edge="1" source="DO5StPmEbmpvMcrOVITN-49" parent="1" target="DO5StPmEbmpvMcrOVITN-31">
          <mxGeometry relative="1" as="geometry">
            <mxPoint x="560.002" y="634.53" as="targetPoint" />
          </mxGeometry>
        </mxCell>
        <mxCell id="DO5StPmEbmpvMcrOVITN-69" value="dispatch" style="html=1;verticalAlign=bottom;endArrow=block;curved=0;rounded=0;entryX=0.017;entryY=0.131;entryDx=0;entryDy=0;fontFamily=Helvetica;fontSize=12;fontColor=default;exitX=1.002;exitY=0.185;exitDx=0;exitDy=0;exitPerimeter=0;entryPerimeter=0;" edge="1" target="DO5StPmEbmpvMcrOVITN-53" parent="1" source="DO5StPmEbmpvMcrOVITN-20">
          <mxGeometry relative="1" as="geometry">
            <mxPoint x="604" y="275.16" as="sourcePoint" />
          </mxGeometry>
        </mxCell>
        <mxCell id="DO5StPmEbmpvMcrOVITN-70" value="return" style="html=1;verticalAlign=bottom;endArrow=open;dashed=1;endSize=8;curved=0;rounded=0;exitX=0;exitY=1;exitDx=0;exitDy=-5;fontFamily=Helvetica;fontSize=12;fontColor=default;entryX=0.983;entryY=0.817;entryDx=0;entryDy=0;entryPerimeter=0;" edge="1" source="DO5StPmEbmpvMcrOVITN-68" parent="1" target="DO5StPmEbmpvMcrOVITN-20">
          <mxGeometry relative="1" as="geometry">
            <mxPoint x="604" y="345.16" as="targetPoint" />
          </mxGeometry>
        </mxCell>
        <mxCell id="DO5StPmEbmpvMcrOVITN-60" value="" style="html=1;points=[[0,0,0,0,5],[0,1,0,0,-5],[1,0,0,0,5],[1,1,0,0,-5]];perimeter=orthogonalPerimeter;outlineConnect=0;targetShapes=umlLifeline;portConstraint=eastwest;newEdgeStyle={&quot;curved&quot;:0,&quot;rounded&quot;:0};sketch=0;strokeColor=default;align=center;verticalAlign=middle;fontFamily=Helvetica;fontSize=12;fontColor=default;fillColor=default;" vertex="1" parent="1">
          <mxGeometry x="619" y="448.25" width="10" height="80" as="geometry" />
        </mxCell>
        <mxCell id="DO5StPmEbmpvMcrOVITN-1" value="User" style="shape=umlActor;verticalLabelPosition=bottom;verticalAlign=top;html=1;fillColor=#080808;" vertex="1" parent="1">
          <mxGeometry x="32" y="446" width="30" height="60" as="geometry" />
        </mxCell>
        <mxCell id="DO5StPmEbmpvMcrOVITN-11" value="" style="shape=requiredInterface;html=1;verticalLabelPosition=bottom;sketch=0;" vertex="1" parent="1">
          <mxGeometry x="43" y="430" width="50" height="110.5" as="geometry" />
        </mxCell>
        <mxCell id="DO5StPmEbmpvMcrOVITN-13" value="" style="endArrow=classic;html=1;rounded=0;" edge="1" parent="1">
          <mxGeometry width="50" height="50" relative="1" as="geometry">
            <mxPoint x="92" y="477.75" as="sourcePoint" />
            <mxPoint x="152" y="477.75" as="targetPoint" />
          </mxGeometry>
        </mxCell>
        <mxCell id="DO5StPmEbmpvMcrOVITN-16" value="&lt;div style=&quot;&quot;&gt;&lt;b style=&quot;background-color: initial;&quot;&gt;&lt;font style=&quot;font-size: 14px;&quot;&gt;Questionnaire&lt;/font&gt;&lt;/b&gt;&lt;/div&gt;&lt;b&gt;&lt;font size=&quot;3&quot;&gt;&lt;div style=&quot;&quot;&gt;&lt;b style=&quot;background-color: initial;&quot;&gt;for initial&lt;/b&gt;&lt;/div&gt;&lt;div style=&quot;&quot;&gt;&lt;b style=&quot;background-color: initial;&quot;&gt;visit&lt;/b&gt;&lt;/div&gt;&lt;/font&gt;&lt;/b&gt;" style="ellipse;whiteSpace=wrap;html=1;align=center;" vertex="1" parent="1">
          <mxGeometry x="150" y="438.25" width="158" height="80" as="geometry" />
        </mxCell>
        <mxCell id="DO5StPmEbmpvMcrOVITN-20" value="&lt;p style=&quot;margin:0px;margin-top:4px;text-align:center;&quot;&gt;&lt;b&gt;Dash Board&lt;/b&gt;&lt;/p&gt;&lt;hr size=&quot;1&quot;&gt;&lt;p style=&quot;margin:0px;margin-left:4px;&quot;&gt;+ Goals and achievements&lt;/p&gt;&lt;p style=&quot;margin:0px;margin-left:4px;&quot;&gt;+ Self Report&lt;/p&gt;&lt;p style=&quot;margin:0px;margin-left:4px;&quot;&gt;+ Reminders and notifications&lt;/p&gt;&lt;p style=&quot;margin:0px;margin-left:4px;&quot;&gt;+ Login/Sign Up&lt;/p&gt;&lt;p style=&quot;margin:0px;margin-left:4px;&quot;&gt;+ Emergency Contact&lt;/p&gt;&lt;p style=&quot;margin:0px;margin-left:4px;&quot;&gt;&lt;br&gt;&lt;/p&gt;" style="verticalAlign=top;align=left;overflow=fill;fontSize=12;fontFamily=Helvetica;html=1;whiteSpace=wrap;" vertex="1" parent="1">
          <mxGeometry x="350" y="205" width="174" height="109" as="geometry" />
        </mxCell>
        <mxCell id="DO5StPmEbmpvMcrOVITN-29" value="&lt;p style=&quot;margin:0px;margin-top:4px;text-align:center;&quot;&gt;&lt;b&gt;Learning Resources&lt;/b&gt;&lt;/p&gt;&lt;hr size=&quot;1&quot;&gt;&lt;p style=&quot;margin:0px;margin-left:4px;&quot;&gt;+ Articles&lt;/p&gt;&lt;p style=&quot;margin:0px;margin-left:4px;&quot;&gt;+ Videos&lt;/p&gt;&lt;p style=&quot;margin:0px;margin-left:4px;&quot;&gt;&lt;br&gt;&lt;/p&gt;" style="verticalAlign=top;align=left;overflow=fill;fontSize=12;fontFamily=Helvetica;html=1;whiteSpace=wrap;" vertex="1" parent="1">
          <mxGeometry x="349.5" y="341" width="171" height="70" as="geometry" />
        </mxCell>
        <mxCell id="DO5StPmEbmpvMcrOVITN-30" value="&lt;p style=&quot;margin:0px;margin-top:4px;text-align:center;&quot;&gt;&lt;b&gt;Emotional Assessment&lt;/b&gt;&lt;/p&gt;&lt;hr size=&quot;1&quot;&gt;&lt;p style=&quot;margin:0px;margin-left:4px;&quot;&gt;+ Facial Recognition&lt;/p&gt;&lt;p style=&quot;margin:0px;margin-left:4px;&quot;&gt;+ GAD-7 Test&lt;/p&gt;&lt;p style=&quot;margin:0px;margin-left:4px;&quot;&gt;+ BDI Test&lt;/p&gt;&lt;p style=&quot;margin:0px;margin-left:4px;&quot;&gt;&lt;br&gt;&lt;/p&gt;" style="verticalAlign=top;align=left;overflow=fill;fontSize=12;fontFamily=Helvetica;html=1;whiteSpace=wrap;" vertex="1" parent="1">
          <mxGeometry x="350.25" y="443.5" width="172" height="78.75" as="geometry" />
        </mxCell>
        <mxCell id="DO5StPmEbmpvMcrOVITN-31" value="&lt;p style=&quot;margin:0px;margin-top:4px;text-align:center;&quot;&gt;&lt;b&gt;Chat Forum&lt;/b&gt;&lt;/p&gt;&lt;hr size=&quot;1&quot;&gt;&lt;p style=&quot;margin:0px;margin-left:4px;&quot;&gt;+ Structed Forums&lt;/p&gt;&lt;p style=&quot;margin:0px;margin-left:4px;&quot;&gt;+ Private Messaging&lt;/p&gt;&amp;nbsp;+ Therapist Directories&lt;p style=&quot;margin:0px;margin-left:4px;&quot;&gt;&lt;br&gt;&lt;/p&gt;" style="verticalAlign=top;align=left;overflow=fill;fontSize=12;fontFamily=Helvetica;html=1;whiteSpace=wrap;" vertex="1" parent="1">
          <mxGeometry x="350" y="546" width="172" height="90" as="geometry" />
        </mxCell>
        <mxCell id="DO5StPmEbmpvMcrOVITN-33" value="&lt;p style=&quot;margin:0px;margin-top:4px;text-align:center;&quot;&gt;&lt;b&gt;Mindfulness and Relaxation&lt;/b&gt;&lt;br&gt;&lt;/p&gt;&lt;hr size=&quot;1&quot;&gt;&lt;p style=&quot;margin:0px;margin-left:4px;&quot;&gt;+ Meditation Sessions&lt;/p&gt;&lt;p style=&quot;margin:0px;margin-left:4px;&quot;&gt;+ Binaural Beats&lt;/p&gt;&lt;p style=&quot;margin:0px;margin-left:4px;&quot;&gt;+ 360° Relaxation Videos&lt;/p&gt;&lt;p style=&quot;margin:0px;margin-left:4px;&quot;&gt;+ Session With Celebrity&lt;/p&gt;" style="verticalAlign=top;align=left;overflow=fill;fontSize=12;fontFamily=Helvetica;html=1;whiteSpace=wrap;" vertex="1" parent="1">
          <mxGeometry x="346.5" y="665" width="179.5" height="98" as="geometry" />
        </mxCell>
        <mxCell id="DO5StPmEbmpvMcrOVITN-41" value="" style="endArrow=classic;html=1;rounded=0;entryX=0.011;entryY=0.59;entryDx=0;entryDy=0;entryPerimeter=0;" edge="1" parent="1" target="DO5StPmEbmpvMcrOVITN-33">
          <mxGeometry width="50" height="50" relative="1" as="geometry">
            <mxPoint x="216" y="724" as="sourcePoint" />
            <mxPoint x="216.27" y="835.79" as="targetPoint" />
          </mxGeometry>
        </mxCell>
        <mxCell id="DO5StPmEbmpvMcrOVITN-42" value="" style="endArrow=none;html=1;rounded=0;exitX=0.42;exitY=1.017;exitDx=0;exitDy=0;exitPerimeter=0;" edge="1" parent="1" source="DO5StPmEbmpvMcrOVITN-16">
          <mxGeometry width="50" height="50" relative="1" as="geometry">
            <mxPoint x="373" y="715" as="sourcePoint" />
            <mxPoint x="216" y="723" as="targetPoint" />
          </mxGeometry>
        </mxCell>
        <mxCell id="DO5StPmEbmpvMcrOVITN-43" value="" style="endArrow=none;html=1;rounded=0;" edge="1" parent="1" source="DO5StPmEbmpvMcrOVITN-16">
          <mxGeometry width="50" height="50" relative="1" as="geometry">
            <mxPoint x="225" y="434" as="sourcePoint" />
            <mxPoint x="229" y="253" as="targetPoint" />
          </mxGeometry>
        </mxCell>
        <mxCell id="DO5StPmEbmpvMcrOVITN-44" value="" style="endArrow=classic;html=1;rounded=0;entryX=0.009;entryY=0.45;entryDx=0;entryDy=0;entryPerimeter=0;" edge="1" parent="1" target="DO5StPmEbmpvMcrOVITN-20">
          <mxGeometry width="50" height="50" relative="1" as="geometry">
            <mxPoint x="230" y="255" as="sourcePoint" />
            <mxPoint x="423" y="365" as="targetPoint" />
          </mxGeometry>
        </mxCell>
        <mxCell id="DO5StPmEbmpvMcrOVITN-45" value="" style="endArrow=none;html=1;rounded=0;exitX=0.658;exitY=0.027;exitDx=0;exitDy=0;exitPerimeter=0;" edge="1" parent="1" source="DO5StPmEbmpvMcrOVITN-16">
          <mxGeometry width="50" height="50" relative="1" as="geometry">
            <mxPoint x="373" y="415" as="sourcePoint" />
            <mxPoint x="254" y="388" as="targetPoint" />
          </mxGeometry>
        </mxCell>
        <mxCell id="DO5StPmEbmpvMcrOVITN-46" value="" style="endArrow=classic;html=1;rounded=0;entryX=0.008;entryY=0.666;entryDx=0;entryDy=0;entryPerimeter=0;" edge="1" parent="1" target="DO5StPmEbmpvMcrOVITN-29">
          <mxGeometry width="50" height="50" relative="1" as="geometry">
            <mxPoint x="254" y="389" as="sourcePoint" />
            <mxPoint x="423" y="365" as="targetPoint" />
          </mxGeometry>
        </mxCell>
        <mxCell id="DO5StPmEbmpvMcrOVITN-47" value="" style="endArrow=classic;html=1;rounded=0;exitX=1;exitY=0.5;exitDx=0;exitDy=0;" edge="1" parent="1" source="DO5StPmEbmpvMcrOVITN-16" target="DO5StPmEbmpvMcrOVITN-30">
          <mxGeometry width="50" height="50" relative="1" as="geometry">
            <mxPoint x="373" y="415" as="sourcePoint" />
            <mxPoint x="423" y="365" as="targetPoint" />
          </mxGeometry>
        </mxCell>
        <mxCell id="DO5StPmEbmpvMcrOVITN-48" value="&lt;p style=&quot;margin:0px;margin-top:4px;text-align:center;&quot;&gt;&lt;b&gt;Joyful Resources&lt;/b&gt;&lt;/p&gt;&lt;hr size=&quot;1&quot;&gt;&lt;p style=&quot;margin:0px;margin-left:4px;&quot;&gt;+ Interactive Quizzes&lt;/p&gt;&lt;p style=&quot;margin:0px;margin-left:4px;&quot;&gt;+ Memory Games&lt;/p&gt;&lt;p style=&quot;margin:0px;margin-left:4px;&quot;&gt;+ Puzzles&lt;/p&gt;&lt;p style=&quot;margin:0px;margin-left:4px;&quot;&gt;+ Art and Creativity&lt;/p&gt;&lt;p style=&quot;margin:0px;margin-left:4px;&quot;&gt;+ DIY Craft Ideas&lt;/p&gt;&lt;p style=&quot;margin:0px;margin-left:4px;&quot;&gt;&lt;br&gt;&lt;/p&gt;" style="verticalAlign=top;align=left;overflow=fill;fontSize=12;fontFamily=Helvetica;html=1;whiteSpace=wrap;" vertex="1" parent="1">
          <mxGeometry x="348" y="792" width="174" height="109" as="geometry" />
        </mxCell>
        <mxCell id="DO5StPmEbmpvMcrOVITN-54" value="&lt;b&gt;DATA BASE&lt;/b&gt;" style="text;html=1;align=center;verticalAlign=middle;resizable=0;points=[];autosize=1;strokeColor=none;fillColor=none;" vertex="1" parent="1">
          <mxGeometry x="669" y="345.68" width="86" height="26" as="geometry" />
        </mxCell>
        <mxCell id="DO5StPmEbmpvMcrOVITN-61" value="dispatch" style="html=1;verticalAlign=bottom;endArrow=block;curved=0;rounded=0;entryX=0;entryY=0;entryDx=0;entryDy=5;fontFamily=Helvetica;fontSize=12;fontColor=default;exitX=0.994;exitY=0.123;exitDx=0;exitDy=0;exitPerimeter=0;" edge="1" target="DO5StPmEbmpvMcrOVITN-60" parent="1" source="DO5StPmEbmpvMcrOVITN-30">
          <mxGeometry relative="1" as="geometry">
            <mxPoint x="522" y="446" as="sourcePoint" />
          </mxGeometry>
        </mxCell>
        <mxCell id="DO5StPmEbmpvMcrOVITN-62" value="return" style="html=1;verticalAlign=bottom;endArrow=open;dashed=1;endSize=8;curved=0;rounded=0;exitX=0;exitY=1;exitDx=0;exitDy=-5;fontFamily=Helvetica;fontSize=12;fontColor=default;entryX=1;entryY=1;entryDx=0;entryDy=0;" edge="1" source="DO5StPmEbmpvMcrOVITN-60" parent="1" target="DO5StPmEbmpvMcrOVITN-30">
          <mxGeometry relative="1" as="geometry">
            <mxPoint x="546.84" y="515.5" as="targetPoint" />
          </mxGeometry>
        </mxCell>
        <mxCell id="DO5StPmEbmpvMcrOVITN-64" value="" style="endArrow=classic;html=1;rounded=0;fontFamily=Helvetica;fontSize=12;fontColor=default;" edge="1" parent="1">
          <mxGeometry width="50" height="50" relative="1" as="geometry">
            <mxPoint x="162" y="810" as="sourcePoint" />
            <mxPoint x="345" y="808" as="targetPoint" />
          </mxGeometry>
        </mxCell>
        <mxCell id="DO5StPmEbmpvMcrOVITN-65" value="" style="endArrow=none;html=1;rounded=0;fontFamily=Helvetica;fontSize=12;fontColor=default;exitX=0;exitY=1;exitDx=0;exitDy=0;" edge="1" parent="1">
          <mxGeometry width="50" height="50" relative="1" as="geometry">
            <mxPoint x="163.13856428626264" y="499.00427124746216" as="sourcePoint" />
            <mxPoint x="163" y="812" as="targetPoint" />
          </mxGeometry>
        </mxCell>
        <mxCell id="DO5StPmEbmpvMcrOVITN-66" value="" style="endArrow=none;html=1;rounded=0;fontFamily=Helvetica;fontSize=12;fontColor=default;exitX=0.648;exitY=0.977;exitDx=0;exitDy=0;exitPerimeter=0;" edge="1" parent="1" source="DO5StPmEbmpvMcrOVITN-16">
          <mxGeometry width="50" height="50" relative="1" as="geometry">
            <mxPoint x="405" y="746" as="sourcePoint" />
            <mxPoint x="252" y="610" as="targetPoint" />
          </mxGeometry>
        </mxCell>
        <mxCell id="DO5StPmEbmpvMcrOVITN-67" value="" style="endArrow=classic;html=1;rounded=0;fontFamily=Helvetica;fontSize=12;fontColor=default;entryX=0;entryY=0.676;entryDx=0;entryDy=0;entryPerimeter=0;" edge="1" parent="1" target="DO5StPmEbmpvMcrOVITN-31">
          <mxGeometry width="50" height="50" relative="1" as="geometry">
            <mxPoint x="252" y="608" as="sourcePoint" />
            <mxPoint x="455" y="696" as="targetPoint" />
          </mxGeometry>
        </mxCell>
        <mxCell id="DO5StPmEbmpvMcrOVITN-72" value="Admin" style="shape=umlActor;verticalLabelPosition=bottom;verticalAlign=top;html=1;fillColor=#080808;" vertex="1" parent="1">
          <mxGeometry x="887" y="452.88" width="30" height="60" as="geometry" />
        </mxCell>
        <mxCell id="DO5StPmEbmpvMcrOVITN-75" value="dispatch" style="html=1;verticalAlign=bottom;endArrow=block;curved=0;rounded=0;fontFamily=Helvetica;fontSize=12;fontColor=default;entryX=1;entryY=0.75;entryDx=0;entryDy=0;exitX=0.447;exitY=0.245;exitDx=0;exitDy=0;exitPerimeter=0;" edge="1" parent="1" source="DO5StPmEbmpvMcrOVITN-72" target="DO5StPmEbmpvMcrOVITN-53">
          <mxGeometry width="80" relative="1" as="geometry">
            <mxPoint x="898" y="456" as="sourcePoint" />
            <mxPoint x="838" y="379" as="targetPoint" />
          </mxGeometry>
        </mxCell>
        <mxCell id="DO5StPmEbmpvMcrOVITN-76" value="return" style="html=1;verticalAlign=bottom;endArrow=open;dashed=1;endSize=8;curved=0;rounded=0;fontFamily=Helvetica;fontSize=12;fontColor=default;exitX=0.25;exitY=0.868;exitDx=0;exitDy=0;exitPerimeter=0;entryX=1;entryY=0.75;entryDx=0;entryDy=0;" edge="1" parent="1" source="DO5StPmEbmpvMcrOVITN-53" target="DO5StPmEbmpvMcrOVITN-29">
          <mxGeometry relative="1" as="geometry">
            <mxPoint x="470" y="421" as="sourcePoint" />
            <mxPoint x="390" y="421" as="targetPoint" />
          </mxGeometry>
        </mxCell>
        <mxCell id="DO5StPmEbmpvMcrOVITN-77" value="" style="endArrow=classic;startArrow=classic;html=1;rounded=0;fontFamily=Helvetica;fontSize=12;fontColor=default;exitX=0.483;exitY=0.017;exitDx=0;exitDy=0;exitPerimeter=0;" edge="1" parent="1" source="DO5StPmEbmpvMcrOVITN-49" target="DO5StPmEbmpvMcrOVITN-54">
          <mxGeometry width="50" height="50" relative="1" as="geometry">
            <mxPoint x="701" y="438.25" as="sourcePoint" />
            <mxPoint x="748" y="408" as="targetPoint" />
          </mxGeometry>
        </mxCell>
        <mxCell id="DO5StPmEbmpvMcrOVITN-82" value="dispatch" style="html=1;verticalAlign=bottom;endArrow=block;curved=0;rounded=0;fontFamily=Helvetica;fontSize=12;fontColor=default;entryX=1;entryY=0.5;entryDx=0;entryDy=0;exitX=0.5;exitY=0.5;exitDx=0;exitDy=0;exitPerimeter=0;" edge="1" parent="1" source="DO5StPmEbmpvMcrOVITN-72" target="DO5StPmEbmpvMcrOVITN-49">
          <mxGeometry width="80" relative="1" as="geometry">
            <mxPoint x="841" y="607" as="sourcePoint" />
            <mxPoint x="921" y="607" as="targetPoint" />
          </mxGeometry>
        </mxCell>
        <mxCell id="DO5StPmEbmpvMcrOVITN-83" value="return" style="html=1;verticalAlign=bottom;endArrow=open;dashed=1;endSize=8;curved=0;rounded=0;fontFamily=Helvetica;fontSize=12;fontColor=default;exitX=0.591;exitY=1.006;exitDx=0;exitDy=0;exitPerimeter=0;entryX=1;entryY=0.5;entryDx=0;entryDy=0;" edge="1" parent="1" source="DO5StPmEbmpvMcrOVITN-49" target="DO5StPmEbmpvMcrOVITN-33">
          <mxGeometry relative="1" as="geometry">
            <mxPoint x="732" y="717" as="sourcePoint" />
            <mxPoint x="652" y="717" as="targetPoint" />
          </mxGeometry>
        </mxCell>
        <mxCell id="DO5StPmEbmpvMcrOVITN-86" value="return" style="html=1;verticalAlign=bottom;endArrow=open;dashed=1;endSize=8;curved=0;rounded=0;fontFamily=Helvetica;fontSize=12;fontColor=default;exitX=0.813;exitY=0.988;exitDx=0;exitDy=0;exitPerimeter=0;entryX=1.006;entryY=0.422;entryDx=0;entryDy=0;entryPerimeter=0;" edge="1" parent="1" source="DO5StPmEbmpvMcrOVITN-49" target="DO5StPmEbmpvMcrOVITN-48">
          <mxGeometry relative="1" as="geometry">
            <mxPoint x="737" y="827" as="sourcePoint" />
            <mxPoint x="657" y="827" as="targetPoint" />
          </mxGeometry>
        </mxCell>
        <mxCell id="DO5StPmEbmpvMcrOVITN-49" value="&lt;b&gt;&lt;font style=&quot;font-size: 18px;&quot;&gt;&lt;br&gt;ML MODEL&lt;/font&gt;&lt;/b&gt;" style="html=1;dropTarget=0;whiteSpace=wrap;" vertex="1" parent="1">
          <mxGeometry x="610" y="420" width="184" height="113.5" as="geometry" />
        </mxCell>
        <mxCell id="DO5StPmEbmpvMcrOVITN-50" value="" style="shape=module;jettyWidth=8;jettyHeight=4;" vertex="1" parent="DO5StPmEbmpvMcrOVITN-49">
          <mxGeometry x="1" width="20" height="20" relative="1" as="geometry">
            <mxPoint x="-27" y="7" as="offset" />
          </mxGeometry>
        </mxCell>
        <mxCell id="DO5StPmEbmpvMcrOVITN-88" value="OPENCV" style="shape=folder;fontStyle=1;spacingTop=10;tabWidth=24;tabHeight=14;tabPosition=left;html=1;whiteSpace=wrap;sketch=0;strokeColor=default;align=center;verticalAlign=middle;fontFamily=Helvetica;fontSize=12;fontColor=default;fillColor=default;" vertex="1" parent="1">
          <mxGeometry x="619" y="427.5" width="69" height="40" as="geometry" />
        </mxCell>
        <mxCell id="DO5StPmEbmpvMcrOVITN-89" value="PYTORCH" style="shape=folder;fontStyle=1;spacingTop=10;tabWidth=24;tabHeight=14;tabPosition=left;html=1;whiteSpace=wrap;sketch=0;strokeColor=default;align=center;verticalAlign=middle;fontFamily=Helvetica;fontSize=12;fontColor=default;fillColor=default;" vertex="1" parent="1">
          <mxGeometry x="699" y="427.5" width="64" height="40" as="geometry" />
        </mxCell>
        <mxCell id="DO5StPmEbmpvMcrOVITN-94" value="&lt;b&gt;&lt;font style=&quot;font-size: 18px;&quot;&gt;MENTAL HEALTH TRACKING SYSTEM AMONG CHILDREN&lt;/font&gt;&lt;/b&gt;" style="text;html=1;align=center;verticalAlign=middle;resizable=0;points=[];autosize=1;strokeColor=none;fillColor=none;fontSize=12;fontFamily=Helvetica;fontColor=default;" vertex="1" parent="1">
          <mxGeometry x="226" y="137" width="518" height="34" as="geometry" />
        </mxCell>
      </root>
    </mxGraphModel>
  </diagram>
</mxfile>
